<?xml version="1.0" encoding="UTF-8"?>
<svg id="Layer_1" data-name="Layer 1" xmlns="http://www.w3.org/2000/svg" viewBox="0 0 500 500">
  <defs>
    <style>
      .cls-1 {
        fill: red;
      }
    </style>
  </defs>
  <path class="cls-1" d="m159.06,370.76c-4.27,0-8.55-1.02-12.49-3.08-8.91-4.66-14.44-13.8-14.44-23.86v-187.64c0-10.06,5.54-19.2,14.44-23.86,8.91-4.66,19.57-4,27.83,1.74l135.14,93.82c7.25,5.03,11.57,13.3,11.57,22.12s-4.32,17.08-11.57,22.11l-135.15,93.82c-4.61,3.2-9.96,4.82-15.34,4.82Z"/>
  <g>
    <path d="m98.95,169.34c-13.17,24.18-19.78,51.06-19.78,80.66s6.6,56.48,19.78,80.66v-161.32Z"/>
    <path d="m370.77,129.25c-33.39-33.38-73.64-50.07-120.77-50.07-31.18,0-59.27,7.47-84.43,22.07,7.68,1.44,15.2,3.98,21.88,8.63l135.15,93.82c15.18,10.56,24.23,27.87,24.23,46.3s-9.06,35.78-24.22,46.3l-135.15,93.82c-6.5,4.51-13.79,7.45-21.41,8.93,25.04,14.42,52.98,21.78,83.95,21.78,47.13,0,87.37-16.69,120.77-50.07,33.37-33.38,50.06-73.63,50.06-120.75s-16.69-87.37-50.06-120.76Z"/>
  </g>
</svg>